<svg width="26" height="25" viewBox="0 0 26 25" fill="none" xmlns="http://www.w3.org/2000/svg">
<path fill-rule="evenodd" clip-rule="evenodd" d="M17.7692 8.66772C17.5887 8.54143 17.3368 8.5808 17.2064 8.75569L12.237 15.4242L8.33925 11.8265C8.17803 11.6778 7.92289 11.6838 7.76941 11.84C7.61588 11.9962 7.62209 12.2435 7.78327 12.3922L12.3498 16.6071L17.8599 9.21311C17.9903 9.03823 17.9496 8.79405 17.7692 8.66772Z" fill="black"/>
<path fill-rule="evenodd" clip-rule="evenodd" d="M12.898 21.875C18.2405 21.875 22.5715 17.6777 22.5715 12.5C22.5715 7.32234 18.2405 3.125 12.898 3.125C7.55555 3.125 3.22458 7.32234 3.22458 12.5C3.22458 17.6777 7.55555 21.875 12.898 21.875ZM12.898 22.6562C18.6857 22.6562 23.3776 18.1091 23.3776 12.5C23.3776 6.89086 18.6857 2.34375 12.898 2.34375C7.11032 2.34375 2.41846 6.89086 2.41846 12.5C2.41846 18.1091 7.11032 22.6562 12.898 22.6562Z" fill="black"/>
</svg>
