<svg width="34" height="34" viewBox="0 0 34 34" fill="none" xmlns="http://www.w3.org/2000/svg">
<path d="M30.6611 3.57266H25.411L18.9384 1.46094C18.5497 1.33376 18.1376 1.29483 17.732 1.34699C17.3264 1.39914 16.9375 1.54106 16.5936 1.76243L12.6936 4.26794C12.6515 4.29493 12.6152 4.32994 12.5866 4.37098C12.5581 4.41202 12.5379 4.45827 12.5272 4.50711C12.5165 4.55595 12.5156 4.60641 12.5244 4.65561C12.5333 4.70482 12.5517 4.7518 12.5787 4.79387C12.6057 4.83595 12.6407 4.8723 12.6817 4.90084C12.7228 4.92939 12.769 4.94957 12.8179 4.96024C12.8667 4.97091 12.9172 4.97185 12.9664 4.96302C13.0156 4.95418 13.0626 4.93575 13.1046 4.90876L17.0047 2.40657C17.2537 2.24662 17.5354 2.1443 17.829 2.10708C18.1227 2.06985 18.4209 2.09867 18.702 2.19141L25.2344 4.31641C25.2723 4.32888 25.312 4.33516 25.3519 4.33501H30.2813V10.7306H27.4491C27.3793 10.7307 27.3108 10.7499 27.2512 10.7862C27.1916 10.8225 27.1431 10.8745 27.111 10.9365C26.6844 11.6581 26.0329 12.2198 25.2563 12.5355V10.8242C25.8666 10.5639 26.518 10.111 26.9337 9.32145C26.9572 9.27715 26.9716 9.22867 26.9763 9.17878C26.981 9.12889 26.9758 9.07857 26.961 9.03069C26.9462 8.98281 26.9222 8.9383 26.8902 8.89972C26.8583 8.86113 26.819 8.82922 26.7747 8.80581C26.7304 8.78239 26.6819 8.76793 26.632 8.76325C26.5821 8.75857 26.5318 8.76377 26.4839 8.77854C26.4361 8.7933 26.3916 8.81736 26.353 8.84933C26.3144 8.88129 26.2825 8.92055 26.2591 8.96485C25.5352 10.3488 23.7356 10.4105 23.7257 10.4105C21.3151 10.4105 20.6192 8.72778 20.5913 8.65805C20.5637 8.58621 20.5149 8.52442 20.4515 8.4808C20.3881 8.43718 20.313 8.41378 20.236 8.41368H16.6587C16.523 8.41715 16.3881 8.39342 16.2617 8.3439C16.1354 8.29439 16.0202 8.22008 15.9231 8.12536C15.8259 8.03064 15.7487 7.91743 15.6959 7.79239C15.6432 7.66736 15.616 7.53303 15.616 7.39733C15.616 7.26163 15.6432 7.12731 15.6959 7.00227C15.7487 6.87724 15.8259 6.76402 15.9231 6.6693C16.0202 6.57458 16.1354 6.50027 16.2617 6.45076C16.3881 6.40124 16.523 6.37751 16.6587 6.38098H20.9286C20.98 6.38313 21.0312 6.37487 21.0793 6.35669C21.1274 6.33852 21.1713 6.31081 21.2084 6.27524C21.2455 6.23966 21.275 6.19695 21.2951 6.14968C21.3153 6.1024 21.3257 6.05154 21.3257 6.00014C21.3257 5.94875 21.3153 5.89788 21.2951 5.85061C21.275 5.80333 21.2455 5.76062 21.2084 5.72505C21.1713 5.68947 21.1274 5.66176 21.0793 5.64359C21.0312 5.62542 20.98 5.61716 20.9286 5.6193H16.6587C16.4223 5.61473 16.1874 5.65735 15.9677 5.74465C15.748 5.83195 15.5478 5.96219 15.3791 6.12775C15.2103 6.29331 15.0762 6.49086 14.9847 6.70885C14.8931 6.92685 14.846 7.1609 14.846 7.39733C14.846 7.63376 14.8931 7.86782 14.9847 8.08581C15.0762 8.3038 15.2103 8.50135 15.3791 8.66691C15.5478 8.83247 15.748 8.96271 15.9677 9.05001C16.1874 9.13731 16.4223 9.17993 16.6587 9.17536H19.9976C20.3157 9.75907 21.3344 11.1722 23.7336 11.1722C23.99 11.1608 24.2448 11.1255 24.4946 11.0666V16.7111C24.4945 16.8601 24.4352 17.0029 24.3299 17.1082C24.2246 17.2135 24.0818 17.2728 23.9328 17.2729H4.28124C4.13246 17.2728 3.9898 17.2137 3.88442 17.1087C3.77903 17.0037 3.71948 16.8612 3.71878 16.7125V6.94278C3.71895 6.79384 3.7782 6.65104 3.88352 6.54572C3.98884 6.4404 4.13163 6.38116 4.28058 6.38098H13.9912C14.0425 6.38313 14.0938 6.37487 14.1418 6.35669C14.1899 6.33852 14.2338 6.31081 14.2709 6.27524C14.308 6.23966 14.3375 6.19695 14.3577 6.14968C14.3778 6.1024 14.3882 6.05154 14.3882 6.00014C14.3882 5.94875 14.3778 5.89788 14.3577 5.85061C14.3375 5.80333 14.308 5.76062 14.2709 5.72505C14.2338 5.68947 14.1899 5.66176 14.1418 5.64359C14.0938 5.62542 14.0425 5.61716 13.9912 5.6193H4.28124C3.93061 5.62053 3.59469 5.76036 3.34675 6.00829C3.09882 6.25623 2.95899 6.59215 2.95776 6.94278V16.7125C2.95899 17.0631 3.09882 17.399 3.34675 17.647C3.59469 17.8949 3.93061 18.0347 4.28124 18.0359H23.9328C24.2835 18.0347 24.6194 17.8949 24.8673 17.647C25.1153 17.399 25.2551 17.0631 25.2563 16.7125V13.3424C26.6216 12.9074 27.386 11.9226 27.6649 11.4916H30.6611C30.7621 11.4916 30.859 11.4515 30.9304 11.3802C31.0019 11.3089 31.0421 11.2121 31.0423 11.1111V3.95383C31.0423 3.85274 31.0021 3.75579 30.9307 3.68431C30.8592 3.61282 30.7622 3.57266 30.6611 3.57266Z" fill="black"/>
<path d="M5.54027 13.8344V9.82019C5.94092 9.74319 6.30927 9.54783 6.59775 9.25935C6.88624 8.97086 7.08159 8.60251 7.15859 8.20187H13.6618C13.76 8.19776 13.8529 8.15584 13.9209 8.08487C13.989 8.0139 14.027 7.91936 14.027 7.82103C14.027 7.72269 13.989 7.62815 13.9209 7.55718C13.8529 7.48621 13.76 7.44429 13.6618 7.44019H6.81395C6.71285 7.44019 6.6159 7.48034 6.54442 7.55183C6.47293 7.62331 6.43277 7.72026 6.43277 7.82136C6.43304 7.98876 6.40031 8.15458 6.33647 8.30933C6.27263 8.46408 6.17892 8.60474 6.0607 8.72327C5.94249 8.84179 5.80207 8.93587 5.64749 9.00011C5.4929 9.06435 5.32717 9.09751 5.15977 9.09769C5.05971 9.09838 4.96393 9.13839 4.89311 9.20908C4.8223 9.27977 4.78212 9.37548 4.78125 9.47554V14.1798C4.78125 14.2298 4.79111 14.2793 4.81028 14.3255C4.82944 14.3717 4.85753 14.4137 4.89293 14.4491C4.92834 14.4844 4.97036 14.5124 5.0166 14.5315C5.06285 14.5506 5.1124 14.5604 5.16242 14.5603C5.5 14.5608 5.82359 14.6952 6.06223 14.9339C6.30087 15.1727 6.43508 15.4964 6.43543 15.8339C6.43543 15.884 6.44529 15.9335 6.46446 15.9797C6.48362 16.0259 6.51171 16.0679 6.54711 16.1032C6.58252 16.1386 6.62454 16.1666 6.67078 16.1857C6.71703 16.2048 6.76658 16.2145 6.8166 16.2144H21.4001C21.4501 16.2145 21.4997 16.2048 21.5459 16.1857C21.5921 16.1666 21.6342 16.1386 21.6696 16.1032C21.705 16.0679 21.7331 16.0259 21.7522 15.9797C21.7714 15.9335 21.7812 15.884 21.7812 15.8339C21.7816 15.4964 21.9158 15.1727 22.1545 14.9339C22.3931 14.6952 22.7167 14.5608 23.0543 14.5603C23.1043 14.5604 23.1538 14.5506 23.2001 14.5315C23.2463 14.5124 23.2883 14.4844 23.3237 14.4491C23.3591 14.4137 23.3872 14.3717 23.4064 14.3255C23.4256 14.2793 23.4354 14.2298 23.4354 14.1798V12.4585C23.4376 12.4072 23.4293 12.3559 23.4111 12.3078C23.393 12.2598 23.3653 12.2158 23.3297 12.1788C23.2941 12.1417 23.2514 12.1121 23.2041 12.092C23.1568 12.0718 23.106 12.0614 23.0546 12.0614C23.0032 12.0614 22.9523 12.0718 22.9051 12.092C22.8578 12.1121 22.8151 12.1417 22.7795 12.1788C22.7439 12.2158 22.7162 12.2598 22.698 12.3078C22.6799 12.3559 22.6716 12.4072 22.6737 12.4585V13.8344C22.2732 13.9116 21.9049 14.107 21.6165 14.3955C21.328 14.6839 21.1326 15.0522 21.0554 15.4528H7.15859C7.08143 15.0522 6.88601 14.6839 6.59756 14.3955C6.30911 14.107 5.94084 13.9116 5.54027 13.8344Z" fill="black"/>
<path d="M13.6065 10.5745H14.5229C14.6212 10.5704 14.714 10.5285 14.7821 10.4575C14.8502 10.3865 14.8882 10.292 14.8882 10.1937C14.8882 10.0953 14.8502 10.0008 14.7821 9.92983C14.714 9.85886 14.6212 9.81694 14.5229 9.81283H14.2234V9.56779C14.2256 9.51644 14.2173 9.46519 14.1991 9.41711C14.181 9.36904 14.1533 9.32513 14.1177 9.28804C14.0821 9.25095 14.0394 9.22143 13.9921 9.20127C13.9449 9.18111 13.894 9.17072 13.8426 9.17072C13.7912 9.17072 13.7403 9.18111 13.6931 9.20127C13.6458 9.22143 13.6031 9.25095 13.5675 9.28804C13.5319 9.32513 13.5042 9.36904 13.486 9.41711C13.4679 9.46519 13.4596 9.51644 13.4618 9.56779V9.82213C13.1487 9.84577 12.8575 9.99163 12.6511 10.2282C12.4447 10.4648 12.3396 10.7731 12.3586 11.0864C12.3777 11.3998 12.5192 11.6931 12.7527 11.903C12.9862 12.1129 13.2929 12.2225 13.6065 12.2081H14.078C14.1939 12.2081 14.305 12.2541 14.387 12.3361C14.4689 12.418 14.515 12.5292 14.515 12.6451C14.515 12.7609 14.4689 12.8721 14.387 12.954C14.305 13.036 14.1939 13.082 14.078 13.082H13.1629C13.1116 13.0799 13.0603 13.0881 13.0122 13.1063C12.9642 13.1245 12.9203 13.1522 12.8832 13.1878C12.8461 13.2233 12.8166 13.266 12.7964 13.3133C12.7762 13.3606 12.7658 13.4115 12.7658 13.4629C12.7658 13.5142 12.7762 13.5651 12.7964 13.6124C12.8166 13.6597 12.8461 13.7024 12.8832 13.7379C12.9203 13.7735 12.9642 13.8012 13.0122 13.8194C13.0603 13.8376 13.1116 13.8458 13.1629 13.8437H13.4618V14.0887C13.4659 14.187 13.5078 14.2799 13.5787 14.3479C13.6497 14.416 13.7443 14.454 13.8426 14.454C13.9409 14.454 14.0355 14.416 14.1064 14.3479C14.1774 14.2799 14.2193 14.187 14.2234 14.0887V13.8324C14.5368 13.809 14.8283 13.6632 15.0349 13.4265C15.2416 13.1898 15.3467 12.8813 15.3276 12.5677C15.3085 12.2541 15.1667 11.9606 14.9328 11.7507C14.6989 11.5409 14.3919 11.4316 14.078 11.4464H13.6065C13.5478 11.4487 13.4893 11.4391 13.4344 11.4183C13.3795 11.3974 13.3294 11.3656 13.2871 11.3249C13.2447 11.2842 13.2111 11.2354 13.1881 11.1814C13.1651 11.1273 13.1532 11.0692 13.1532 11.0105C13.1532 10.9517 13.1651 10.8936 13.1881 10.8396C13.2111 10.7856 13.2447 10.7367 13.2871 10.696C13.3294 10.6553 13.3795 10.6236 13.4344 10.6027C13.4893 10.5818 13.5478 10.5722 13.6065 10.5745Z" fill="black"/>
<path d="M9.64428 11.5587C9.57389 11.6293 9.53386 11.7246 9.53272 11.8243C9.53267 11.8495 9.53534 11.8747 9.54068 11.8993C9.54535 11.9235 9.5527 11.9471 9.5626 11.9697C9.57171 11.9931 9.58352 12.0154 9.59779 12.0361C9.61123 12.0567 9.62681 12.0759 9.64428 12.0932C9.66197 12.111 9.68132 12.127 9.70205 12.141C9.72303 12.1547 9.74526 12.1662 9.76846 12.1756C9.79166 12.1852 9.81565 12.1927 9.84018 12.1982C9.8647 12.2027 9.88961 12.2049 9.91455 12.2048C10.0154 12.2044 10.112 12.1644 10.1835 12.0932C10.2012 12.0757 10.2172 12.0566 10.2313 12.0361C10.2446 12.0148 10.2564 11.9927 10.2665 11.9697C10.2753 11.9468 10.2824 11.9233 10.2878 11.8993C10.2929 11.8747 10.2953 11.8495 10.2951 11.8243C10.2945 11.7492 10.2717 11.676 10.2296 11.6138C10.1875 11.5516 10.128 11.5033 10.0585 11.4749C9.98898 11.4465 9.91263 11.4393 9.83904 11.4542C9.76545 11.4691 9.69792 11.5055 9.64494 11.5587H9.64428Z" fill="black"/>
<path d="M17.9835 12.0395C17.9978 12.0598 18.0138 12.0789 18.0313 12.0966C18.071 12.1365 18.119 12.1672 18.1719 12.1863C18.2249 12.2054 18.2814 12.2124 18.3374 12.207C18.3934 12.2015 18.4475 12.1836 18.4958 12.1547C18.544 12.1257 18.5852 12.0863 18.6164 12.0395C18.6306 12.0188 18.6425 11.9965 18.6516 11.9731C18.6615 11.9505 18.6688 11.9269 18.6735 11.9027C18.6788 11.8785 18.6814 11.8537 18.6814 11.829C18.6836 11.7776 18.6753 11.7264 18.6572 11.6783C18.639 11.6302 18.6113 11.5863 18.5757 11.5492C18.5401 11.5121 18.4974 11.4826 18.4501 11.4624C18.4029 11.4423 18.352 11.4319 18.3006 11.4319C18.2492 11.4319 18.1983 11.4423 18.1511 11.4624C18.1038 11.4826 18.0611 11.5121 18.0255 11.5492C17.9899 11.5863 17.9622 11.6302 17.9441 11.6783C17.9259 11.7264 17.9176 11.7776 17.9198 11.829C17.9199 11.8537 17.9224 11.8784 17.9271 11.9027C17.9324 11.9267 17.9397 11.9503 17.949 11.9731C17.9587 11.9961 17.9702 12.0183 17.9835 12.0395Z" fill="black"/>
<path d="M27.5925 21.0933C27.237 20.8139 26.7896 20.6781 26.3388 20.7128C25.888 20.7475 25.4666 20.9501 25.158 21.2805L22.7494 23.8843C22.7131 23.9206 22.6845 23.9638 22.6652 24.0114C22.646 24.059 22.6366 24.11 22.6376 24.1613C22.6386 24.2127 22.6499 24.2633 22.6709 24.3101C22.6919 24.3569 22.7221 24.3991 22.7598 24.4339C22.7975 24.4688 22.8418 24.4957 22.8902 24.513C22.9385 24.5303 22.9898 24.5377 23.0411 24.5346C23.0923 24.5316 23.1424 24.5183 23.1884 24.4954C23.2344 24.4726 23.2753 24.4407 23.3086 24.4016L25.7171 21.7978C25.8948 21.6074 26.1375 21.4907 26.3971 21.4708C26.6567 21.4508 26.9144 21.5292 27.119 21.6902C27.2263 21.7755 27.3156 21.8812 27.3817 22.0012C27.4478 22.1212 27.4894 22.2532 27.504 22.3894C27.5187 22.5257 27.5061 22.6635 27.467 22.7948C27.4279 22.9262 27.3631 23.0484 27.2764 23.1545L23.0835 28.2824C22.779 28.6558 22.3452 28.9012 21.8682 28.9697L13.7521 30.1444C13.3398 30.2053 12.947 30.3602 12.6042 30.5972C12.2614 30.8342 11.9777 31.1469 11.7752 31.5111L11.5534 31.9095H4.0873L7.9548 26.1939C8.50822 25.3699 9.27654 24.7129 10.1766 24.2942C11.0766 23.8755 12.074 23.711 13.0608 23.8186C13.7152 23.8865 14.3598 24.0288 14.9819 24.2429C15.4046 24.394 15.8499 24.4722 16.2987 24.474H20.1802C20.4777 24.4743 20.763 24.5927 20.9734 24.8031C21.1838 25.0135 21.3021 25.2987 21.3025 25.5963C21.3021 25.9174 21.1744 26.2253 20.9473 26.4524C20.7202 26.6794 20.4123 26.8072 20.0912 26.8075H16.5351C15.9531 26.8074 15.3893 27.0109 14.9414 27.3826L14.106 28.0759C14.0313 28.1413 13.9851 28.2334 13.9772 28.3324C13.9693 28.4314 14.0004 28.5296 14.0639 28.6061C14.1273 28.6825 14.2181 28.7311 14.3169 28.7416C14.4157 28.7521 14.5147 28.7236 14.5928 28.6622L15.4275 27.969C15.7378 27.7118 16.1281 27.5709 16.5312 27.5705H20.0899C20.6129 27.5698 21.1143 27.3617 21.4842 26.9919C21.854 26.622 22.0621 26.1206 22.0628 25.5976C22.0621 25.0982 21.8634 24.6194 21.5102 24.2662C21.1571 23.9131 20.6783 23.7143 20.1789 23.7136H16.2987C15.9365 23.7117 15.5772 23.6481 15.2362 23.5257C14.5592 23.2916 13.8576 23.1356 13.1451 23.0609C12.0204 22.9377 10.8834 23.1247 9.85733 23.6014C8.83124 24.0782 7.95515 24.8266 7.32394 25.7656L3.05402 32.0742C3.01446 32.1315 2.99136 32.1986 2.98724 32.2681C2.98312 32.3377 2.99813 32.407 3.03064 32.4686C3.06315 32.5302 3.11192 32.5817 3.17165 32.6175C3.23139 32.6534 3.29979 32.6722 3.36945 32.6718H11.7778C11.8459 32.6714 11.9127 32.6527 11.9711 32.6176C12.0295 32.5826 12.0774 32.5325 12.1098 32.4726L12.4419 31.875C12.5875 31.6134 12.7914 31.3889 13.0377 31.2187C13.284 31.0485 13.5661 30.9372 13.8623 30.8935L21.9805 29.7234C22.646 29.6277 23.2514 29.2855 23.6765 28.7645L27.8694 23.6366C28.0204 23.4525 28.1333 23.2402 28.2014 23.012C28.2695 22.7838 28.2914 22.5443 28.2659 22.3076C28.2405 22.0708 28.1681 21.8415 28.053 21.633C27.938 21.4245 27.7825 21.241 27.5958 21.0933H27.5925Z" fill="black"/>
</svg>
