<svg width="34" height="34" viewBox="0 0 34 34" fill="none" xmlns="http://www.w3.org/2000/svg">
<path fill-rule="evenodd" clip-rule="evenodd" d="M3.55615 11.2864C3.55615 9.33848 5.13523 7.7594 7.08315 7.7594H26.8344C28.7823 7.7594 30.3612 9.3385 30.3612 11.2864V22.5728C30.3612 24.5207 28.7823 26.0998 26.8344 26.0998H7.08315C5.13525 26.0998 3.55615 24.5207 3.55615 22.5728V18.3404C3.55615 17.9508 3.87197 17.635 4.26155 17.635C4.65113 17.635 4.96695 17.9508 4.96695 18.3404V22.5728C4.96695 23.7415 5.9144 24.6891 7.08315 24.6891H26.8344C28.0031 24.6891 28.9505 23.7415 28.9505 22.5728V11.2864C28.9505 10.1176 28.0031 9.1702 26.8344 9.1702H7.08315C5.9144 9.1702 4.96695 10.1176 4.96695 11.2864V13.4026H25.4236C25.8131 13.4026 26.1289 13.7184 26.1289 14.108C26.1289 14.4976 25.8131 14.8134 25.4236 14.8134H4.26155C3.87197 14.8134 3.55615 14.4976 3.55615 14.108V11.2864Z" fill="black"/>
</svg>
