<svg width="46" height="46" viewBox="0 0 46 46" fill="none" xmlns="http://www.w3.org/2000/svg">
<path d="M23 0.167969C18.4848 0.168355 14.0711 1.50759 10.317 4.01634C6.56295 6.52509 3.63706 10.0907 1.90935 14.2623C0.181635 18.4338 -0.270312 23.024 0.610654 27.4525C1.49162 31.8809 3.66593 35.9486 6.85866 39.1413C10.0514 42.3341 14.1191 44.5084 18.5476 45.3894C22.976 46.2703 27.5662 45.8184 31.7378 44.0907C35.9093 42.3629 39.4749 39.4371 41.9837 35.683C44.4924 31.9289 45.8317 27.5152 45.832 23C45.8252 16.9467 43.4175 11.1432 39.1372 6.86285C34.8568 2.58249 29.0533 0.174792 23 0.167969ZM23 1.53516C27.1469 1.53445 31.2052 2.73517 34.6842 4.99211C38.1631 7.24906 40.9137 10.4656 42.6033 14.2527C44.2928 18.0398 44.8491 22.2352 44.2047 26.3318C43.5603 30.4283 41.7429 34.2504 38.9723 37.3359C38.0537 34.6402 36.4677 32.2208 34.3622 30.3031C32.2567 28.3854 29.7001 27.0318 26.9305 26.3684C28.7707 25.4785 30.2545 23.9905 31.1392 22.1478C32.0238 20.305 32.257 18.2166 31.8005 16.2241C31.3441 14.2317 30.225 12.4531 28.6263 11.1792C27.0277 9.90541 25.0441 9.21177 23 9.21177C20.9559 9.21177 18.9723 9.90541 17.3737 11.1792C15.775 12.4531 14.6559 14.2317 14.1995 16.2241C13.743 18.2166 13.9762 20.305 14.8609 22.1478C15.7455 23.9905 17.2293 25.4785 19.0695 26.3684C16.3 27.0318 13.7433 28.3854 11.6378 30.3031C9.53229 32.2208 7.94636 34.6402 7.02774 37.3359C4.2571 34.2504 2.43971 30.4283 1.79533 26.3318C1.15095 22.2352 1.70718 18.0398 3.39677 14.2527C5.08635 10.4656 7.83693 7.24906 11.3159 4.99211C14.7948 2.73517 18.8531 1.53445 23 1.53516ZM23 25.9023H22.9895C20.9585 25.8995 19.0117 25.0904 17.577 23.6528C16.1424 22.2152 15.3373 20.2667 15.3387 18.2358C15.3401 16.2048 16.1479 14.2574 17.5845 12.8218C19.0211 11.3861 20.969 10.5797 23 10.5797C25.031 10.5797 26.9789 11.3861 28.4155 12.8218C29.8521 14.2574 30.6599 16.2048 30.6613 18.2358C30.6627 20.2667 29.8576 22.2152 28.423 23.6528C26.9883 25.0904 25.0416 25.8995 23.0106 25.9023H23ZM8.10743 38.4477C9.04422 35.226 11.0005 32.3951 13.6828 30.3797C16.365 28.3643 19.6286 27.2731 22.9836 27.2699H23.0164C26.3715 27.2731 29.635 28.3643 32.3172 30.3797C34.9995 32.3951 36.9558 35.226 37.8926 38.4477C33.8957 42.3075 28.5564 44.4648 23 44.4648C17.4436 44.4648 12.1043 42.3075 8.10743 38.4477Z" fill="black"/>
</svg>
