<svg width="60" height="62" viewBox="0 0 60 62" fill="none" xmlns="http://www.w3.org/2000/svg">
<path fill-rule="evenodd" clip-rule="evenodd" d="M29.9999 3.92779L26.4347 6.3187C25.5735 6.89615 24.5416 7.12619 23.5309 6.9659L19.3463 6.30233L17.0167 10.0073C16.4539 10.902 15.6005 11.5522 14.615 11.8369L10.5349 13.0154L9.84372 17.3935C9.67666 18.4511 9.14918 19.409 8.35929 20.0894L5.08905 22.9063L6.15583 27.2008C6.41346 28.238 6.30321 29.338 5.84547 30.2965L3.95055 34.2645L6.59093 37.7328C7.22866 38.5705 7.55463 39.6226 7.50822 40.6933L7.31627 45.1266L11.0736 47.1689C11.9811 47.6621 12.687 48.4842 13.06 49.4822L14.6042 53.6139L18.8288 53.8771C19.8492 53.9407 20.8129 54.3907 21.5408 55.1433L24.5541 58.2593L28.5156 56.6979C29.4724 56.3208 30.5274 56.3208 31.4842 56.6979L35.4458 58.2593L38.4591 55.1433C39.187 54.3907 40.1507 53.9407 41.171 53.8771L45.3957 53.6139L46.9399 49.4822C47.3128 48.4842 48.0188 47.6621 48.9262 47.1689L52.6836 45.1266L52.4916 40.6933C52.4452 39.6226 52.7712 38.5705 53.4089 37.7328L56.0492 34.2645L54.1542 30.2965C53.6966 29.338 53.5864 28.238 53.844 27.2008L54.9108 22.9063L51.6406 20.0894C50.8505 19.409 50.3232 18.4511 50.1561 17.3935L49.465 13.0154L45.3849 11.8369C44.3994 11.5522 43.5459 10.902 42.9831 10.0073L40.6535 6.30233L36.469 6.9659C35.4583 7.12619 34.4264 6.8963 33.5652 6.3187L29.9999 3.92779ZM30.7576 0.93524C30.2957 0.625428 29.7042 0.625428 29.2422 0.93524L24.9193 3.83415C24.6323 4.02659 24.2883 4.10327 23.9514 4.04989L18.8778 3.24534C18.3355 3.15937 17.7952 3.41153 17.4934 3.89151L14.6687 8.38372C14.4811 8.68204 14.1966 8.89865 13.8681 8.99362L8.92094 10.4225C8.39233 10.5753 7.99661 11.0361 7.90704 11.6034L7.06891 16.9119C7.01322 17.2643 6.83744 17.5837 6.57419 17.8105L2.60899 21.2258C2.18529 21.5908 2.00247 22.1806 2.14071 22.737L3.43418 27.9441C3.5201 28.2899 3.48326 28.6565 3.33068 28.976L1.03315 33.7873C0.787614 34.3014 0.84949 34.9182 1.19149 35.3675L4.39282 39.5728C4.60544 39.8519 4.71415 40.2026 4.69868 40.5596L4.46594 45.9348C4.44105 46.5091 4.73679 47.0463 5.22349 47.3109L9.77932 49.7872C10.0818 49.9516 10.3171 50.2256 10.4414 50.5582L12.3138 55.568C12.5138 56.1033 12.9923 56.468 13.5396 56.502L18.662 56.8211C19.0021 56.8424 19.3234 56.9923 19.566 57.2432L23.2197 61.0214C23.6101 61.425 24.1886 61.554 24.7019 61.3517L29.5052 59.4585C29.8241 59.3328 30.1757 59.3328 30.4946 59.4585L35.298 61.3517C35.8113 61.554 36.3898 61.425 36.7802 61.0214L40.4339 57.2432C40.6765 56.9923 40.9976 56.8424 41.3378 56.8211L46.4602 56.502C47.0075 56.468 47.4861 56.1033 47.6861 55.568L49.5585 50.5582C49.6828 50.2256 49.9181 49.9516 50.2205 49.7872L54.7764 47.3109C55.2631 47.0463 55.5588 46.5091 55.5339 45.9348L55.3012 40.5596C55.2857 40.2026 55.3944 39.8519 55.607 39.5728L58.8084 35.3675C59.1504 34.9182 59.2122 34.3014 58.9667 33.7873L56.6692 28.976C56.5166 28.6565 56.4798 28.2899 56.5657 27.9441L57.8591 22.737C57.9974 22.1806 57.8146 21.5908 57.3909 21.2258L53.4257 17.8105C53.1624 17.5837 52.9866 17.2643 52.9309 16.9119L52.0928 11.6034C52.0032 11.0361 51.6075 10.5753 51.0789 10.4225L46.1317 8.99362C45.8032 8.89865 45.5187 8.68204 45.3311 8.38372L42.5064 3.89151C42.2046 3.41153 41.6642 3.15937 41.1221 3.24534L36.0485 4.04989C35.7116 4.10327 35.3676 4.02659 35.0806 3.83415L30.7576 0.93524Z" fill="black"/>
<path fill-rule="evenodd" clip-rule="evenodd" d="M28.4847 7.06593C29.4084 6.44645 30.5914 6.44645 31.5151 7.06593L34.5224 9.08259L38.0519 8.52283C39.1362 8.35089 40.2169 8.8555 40.8206 9.81546L42.7855 12.9404L47.0941 14.1848L46.3473 17.0282L42.0387 15.7837C41.3817 15.594 40.8127 15.1604 40.4375 14.5638L38.4726 11.439L34.943 11.9986C34.2691 12.1055 33.5813 11.9522 33.0072 11.5671L29.9999 9.55048L26.9926 11.5671C26.4185 11.9522 25.7307 12.1055 25.0568 11.9986L21.5272 11.439L19.5622 14.5638C19.1871 15.1604 18.6181 15.594 17.9611 15.7837L14.5196 16.7778L13.9366 20.4706C13.8252 21.1756 13.4737 21.8143 12.947 22.2678L10.1887 24.6437L11.0884 28.2661C11.2602 28.9576 11.1867 29.691 10.8815 30.3299L9.28331 33.677L11.5102 36.6023C11.9354 37.1608 12.1528 37.8622 12.1218 38.576L11.96 42.3153L15.1291 44.0379C15.7342 44.3667 16.2047 44.9149 16.4534 45.5802L17.7558 49.0653L21.3193 49.2872C21.9995 49.3296 22.642 49.6296 23.1273 50.1312L25.6689 52.7596L29.0103 51.4426C29.6482 51.1912 30.3515 51.1912 30.9895 51.4426L34.3309 52.7596L36.8725 50.1312C37.3578 49.6296 38.0002 49.3296 38.6805 49.2872L42.244 49.0653L43.5464 45.5802C43.7951 44.9149 44.2656 44.3667 44.8707 44.0379L48.0398 42.3153L47.878 38.576C47.847 37.8622 48.0643 37.1607 48.4896 36.6023L50.7165 33.677L49.1183 30.3299C48.8131 29.691 48.7396 28.9576 48.9113 28.2661L50.0378 23.7312L52.7595 24.4746L51.6331 29.0094L53.2314 32.3564C53.7224 33.3845 53.5987 34.6182 52.9146 35.5168L50.6875 38.4423L50.8495 42.1815C50.8992 43.3302 50.3077 44.4045 49.3341 44.9336L46.165 46.6562L44.8626 50.1413C44.4623 51.2118 43.5054 51.941 42.4108 52.0091L38.8473 52.2312L36.3057 54.8595C35.5249 55.6669 34.3677 55.9248 33.3413 55.5202L29.9999 54.2032L26.6585 55.5202C25.6321 55.9248 24.4749 55.6669 23.6941 54.8595L21.1525 52.2312L17.589 52.0091C16.4944 51.941 15.5375 51.2118 15.1372 50.1413L13.8348 46.6562L10.6657 44.9336C9.6921 44.4045 9.10063 43.3302 9.15027 42.1815L9.31227 38.4423L7.0852 35.5168C6.40106 34.6182 6.27745 33.3845 6.76837 32.3564L8.36671 29.0094L7.46699 25.3872C7.19053 24.2745 7.55615 23.0947 8.40342 22.3649L11.1619 19.9889L11.7449 16.296C11.924 15.1616 12.7155 14.2398 13.7728 13.9345L17.2143 12.9404L19.1792 9.81546C19.7829 8.8555 20.8636 8.35089 21.9479 8.52283L25.4774 9.08259L28.4847 7.06593Z" fill="black"/>
<path fill-rule="evenodd" clip-rule="evenodd" d="M40.6237 19.8444C41.2699 20.2962 41.4445 21.2118 41.0137 21.8894L28.0312 42.3098L18.986 28.0827C18.5553 27.4051 18.7299 26.4896 19.3761 26.0379C20.0223 25.5861 20.8954 25.7692 21.3262 26.4468L28.0312 36.993L38.6735 20.2535C39.1044 19.5759 39.9775 19.3928 40.6237 19.8444Z" fill="black"/>
</svg>
